<svg id="레이어_1" data-name="레이어 1" xmlns="http://www.w3.org/2000/svg" viewBox="0 0 739.82 793.3"><defs><style>.cls-1{fill:#fe7477;}</style></defs><path class="cls-1" d="M1031,355.13c23.73,0,47.45.18,71.18-.11,7.19-.08,10.07.46,8.09,9.42-17.58,79.48-34.57,159.09-51.61,238.68-1.34,6.25-3.75,9.61-10.91,10.87q-76.59,13.49-153,28.18c-8.33,1.6-7.36-1.48-6.14-7q14.5-66.33,28.8-132.69c9.84-45.56,19.76-91.11,29.3-136.73,1.62-7.76,4.19-11.16,13.09-10.86C983.52,355.66,1007.26,355.13,1031,355.13Z" transform="translate(-371.05 -312.01)"/><path class="cls-1" d="M577.55,818.77c-18.64,0-37.3-.51-55.91.22-9.41.37-11.3-2.69-8.19-10.79a41.73,41.73,0,0,0,1.48-5.9c5.14-23.32,5.22-22.84,28.73-27,46.09-8.13,92.08-16.85,138.11-25.34q91.89-16.94,183.79-33.9c44.69-8.3,89.34-16.8,134-25.22,11.25-2.13,22.5-4.27,33.73-6.51,5-1,8-.49,6.59,5.89-5.86,26-10.92,52.25-17.47,78.1a68.72,68.72,0,0,1-65.15,51.81c-33.54.78-67.11.19-100.66.5-6.65.06-8.13-1.79-6.43-8.29,3-11.43,4.82-23.15,7.62-34.63,1.21-4.92.77-7.18-4.88-6.05-51.94,10.38-104.55,7.47-157,7.59-7.26,0-11.19,1.36-14.1,8.92-7.64,19.81-23.77,29.14-44.29,30-20,.85-40,.18-60,.18Z" transform="translate(-371.05 -312.01)"/><path class="cls-1" d="M999.74,836.18l-91,17.06c-60.26,11.29-120.5,22.69-180.78,33.83-79.18,14.63-158.4,29-237.58,43.58-26.49,4.89-53,9.91-79.34,15.42-8.36,1.75-12-.69-12.89-9-1.45-14.18,3.42-27.41,6-41,3.16-16.92,8.17-33.54,10.69-50.54,1.44-9.74,5.93-10.89,14.13-10.81,34.92.33,69.84.14,104.76.14H999.53Z" transform="translate(-371.05 -312.01)"/><path class="cls-1" d="M706,959.11c33.33-6.33,66.64-12.75,100-19q69-12.85,138.14-25.45c13.91-2.56,28-4.43,41.72-7.72,8-1.91,8.64.59,7.18,7.19q-12.55,56.91-24.87,113.88-1.62,7.42-3.1,14.89c-7.15,36-37,61.49-73.81,62-32.2.49-64.42,0-96.63.33-7,.08-8.31-1.68-6.78-8.55,9.32-41.89,17.83-84,27.45-125.78,2.14-9.34-.88-10.08-8.57-10-30.17.29-60.35.12-90.53.12h-10Z" transform="translate(-371.05 -312.01)"/><path class="cls-1" d="M792.18,661.3l-91,17.05q-101.78,19-203.53,38.08C458,723.84,418.2,731,378.52,738.64c-7.5,1.43-8.22-1.84-7-7.57,4.63-21.81,9.35-43.59,13.89-65.42.85-4.08,3-5.79,7-5.54,1,.06,2,0,3.05,0H792C792.05,660.5,792.11,660.9,792.18,661.3Z" transform="translate(-371.05 -312.01)"/><path class="cls-1" d="M908.11,368.91c-42,.47-84,.12-126.06.3-6,0-8.45-.6-6.61-7.71,3.57-13.71,5.48-27.86,9.12-41.55,1.9-7.16-.45-7.87-6.52-7.85-49.48.16-99,.24-148.44-.09-6.63,0-8.82,2.63-10,8.28-2.53,12.58-6,25-7.82,37.68-1.25,8.87-4.71,11.47-13.68,11.37-43-.5-86.08-.17-129.12-.29-5.16,0-9,.24-10.31,6.64-4.23,21.54-9.23,42.93-13.27,64.5-2.53,13.5-.29,25.9,13.39,33,4.69,2.43,3,5,1.4,8.1a120.31,120.31,0,0,0-11.14,30.39c-12.54,56.47,7.77,118.46,81.84,130.64,33.68,5.54,67.5,4.38,97.69,4.7,30-.06,56.48.55,82.86-1.58,51.73-4.19,96.76-21.81,129.73-64,23.64-30.26,38.58-63.45,34.91-102.88-.39-4.25,1.41-6.17,4.55-8,15-8.57,21.8-22.6,25.29-38.68,3.74-17.16,6.78-34.49,11.19-51.48C919.53,371.26,917.76,368.81,908.11,368.91ZM709,526.14c-8.33,8.73-18.92,12.81-30.77,13.5-6.74.39-13.52.07-20.28.07-10.07-.36-20.27,1.32-30.19-1.93-17.61-5.78-22.55-22.37-11-36.87,10.15-12.71,24.56-14.63,39.23-15.31,13.15-.61,26.34-.86,39.46,1.16,9.3,1.43,17,5.21,20.33,14.45C719.26,510.84,715.69,519.12,709,526.14Z" transform="translate(-371.05 -312.01)"/></svg>